<?xml version="1.0" encoding="UTF-8"?>
<svg width="90.9" height="62.837" enable-background="new 0 0 100 100" version="1.1" viewBox="0 0 90.9 62.837" xml:space="preserve" xmlns="http://www.w3.org/2000/svg"><g fill="#4e2683"><g transform="translate(-5.4531 -17.616)"><path d="m42.842 20.643-0.30274 0.11133c-0.92683 0.33669-24.38 9.7122-25.684 40.803-1.171-0.62704-2.5244-0.97266-3.9043-0.97266-4.0748 0-7.498 2.8975-7.498 6.5918 0 3.6934 3.4243 6.5918 7.498 6.5918 0.54354 0 1.0776-0.06783 1.6035-0.16992 1.2779 1.9587 3.2938 3.2686 5.5859 3.5957 1.4605 2.6963 4.806 3.2598 8.4023 3.2598 2.7364 0 5.6355-0.03149 7.4434-1.7949 1.9685 1.1832 3.9535 2.2376 7.3281 0.0293 1.4491 0.50954 3.2174 0.79492 5.0293 0.79492 2.9155 0 6.504-0.73632 8.0059-2.7402 2.5858-1.0281 4.3086-3.3822 4.3086-6.1074 0-3.534-2.9256-6.3827-6.5664-6.6289-0.20498-0.55582-0.51449-1.0702-0.9082-1.5293 0.39157-14.925 4.6225-24.483 8.7598-30.332 2.0819-2.9432 4.1408-4.9482 5.6816-6.2188s2.7167-1.8838 2.5527-1.8008l4.0957-2.0508-0.33789-1.4316zm0.69726 3.6777h20.264c-5.5346 5.0904-13.937 16.467-14.32 38.861l-0.01367 0.90625 0.70898 0.5625c0.3735 0.29726 0.53354 0.63942 0.53711 0.99023-0.0055 0.04311-0.01229 0.08218-0.01563 0.13086l-0.18945 2.3926 2.3594-0.43945c0.23505-0.04402 0.47463-0.06445 0.71289-0.06445 1.9217 0 3.3965 1.3739 3.3965 2.9746 0 1.2802-0.90294 2.4209-2.3613 2.8301l-0.89258 0.25-0.32617 0.86328c0.02826-0.07362-0.0042 0.01284-0.14062 0.11719-0.13647 0.10435-0.36047 0.23626-0.6543 0.36524-0.88147 0.38693-2.3794 0.74414-4.2578 0.74414-1.7548 0-3.3993-0.32911-4.4023-0.81641l-0.93164-0.45312-0.86914 0.56055c-0.43173 0.27772-0.8696 0.57023-1.293 0.7832-0.42337 0.21298-0.82113 0.33789-1.1699 0.33789-0.48254 0-0.99343-0.16211-1.5-0.43555-0.50657-0.27344-0.99929-0.65324-1.4316-1.0312l-1.8398-1.6113-1.0371 2.2148c-0.24552 0.52371-0.63142 0.8184-1.2695 1.043-0.95717 0.33685-2.4366 0.37891-4.0586 0.37891-1.4746 0-2.8019-0.09022-3.7363-0.38281-0.46723-0.1463-0.83101-0.33884-1.0918-0.56836-0.26079-0.22952-0.43323-0.4907-0.53711-0.87109l-0.38086-1.3945-1.459 0.03906-0.0918 0.0078c-1.7724-0.0049-3.3636-1.1091-4.0625-2.8633l-0.69335-1.7422-1.7285 0.72656c-0.56892 0.23891-1.1759 0.36133-1.8125 0.36133-2.1938 0-3.8184-1.4033-3.8184-2.9141 0-1.5118 1.6251-2.9121 3.8184-2.9121 1.1512 0 2.2418 0.41784 2.957 1.0898l1.2344 1.1602 1.2559-1.1328c0.30785-0.27638 0.65782-0.51115 1.043-0.69726l1.0137-0.49024 0.02344-1.1289c0.27806-14.454 5.5764-23.907 11.053-29.898 5.3684-5.8731 10.872-8.3689 12.01-8.8438z" fill="#4e2683"/></g><path d="m69.608 9.3137c2.8168-0.72464 3.8848-2.1626 4.4384-3.9413 0.58885-1.8918 0.53462-3.8223 0.37797-5.3724 3.3151 1.8979 11.385 7.8184 16.476 10.139-3.9321 3.1964-12.854 16.14-12.854 16.14s0.23137-9.4771-3.2629-10.188c-5.7421-1.1675-9.9081 5.1669-11.474 13.318-3.0367 15.81 10.974 21.025 7.2359 28.476-0.80407 1.603-5.56 1.6829-7.6005 0.30062-2.049-1.388-2.1632-3.182-2.6202-6.3013-0.50993-3.481-5.4828-9.1024-6.0506-13.474-1.1551-8.8941 6.4358-26.807 15.333-29.096z"/><g transform="translate(-7.9713 -18.495)"><path d="m18.067 28.622c0.722-2.167-1.264-2.167-1.986-3.612-0.723-1.445 0.361-4.334 2.167-5.237 0 0 3.611-1.445 5.237 0 1.625 1.444 5.056 0.903 5.778 0.542 0.723-0.361 2.528-0.361 3.792 0.181s2.709 1.986 2.709 1.986-14.631 9.5405-15.048 19.284c0 0-3.9606-5.395-3.3286-7.02s1.8033-2.1723 1.8033-3.7073c1e-3 -1.536-1.1241-2.4162-1.1241-2.4162z" fill="#4e2683"/></g><g transform="translate(-5.4531 -17.616)"><path d="m38.998 31.428c-0.20382 0.12228-0.76112 0.47033-1.1172 0.69727-0.34052 0.22148-0.78757 0.49786-1.2734 0.83594l-0.01367 0.0098-0.01367 0.01172c-0.4462 0.37501-0.94866 0.80303-1.4922 1.2852-0.58889 0.46986-1.128 1.1141-1.6543 1.6973l-2e-3 0.0039-0.0039 0.0039c-0.23683 0.27748-0.58556 0.62662-0.84961 0.98242-0.26219 0.35093-0.52366 0.73193-0.77539 1.082-0.56071 0.74487-1.0486 1.5646-1.5098 2.4023-0.4988 0.81797-0.88712 1.7728-1.2871 2.5879l-0.0039 0.0078-2e-3 0.0078c-0.39052 0.89466-0.70676 1.8261-1.0332 2.6953l-0.0078 0.02344c-0.26858 0.89262-0.56136 1.8025-0.75781 2.6855-0.21951 0.88106-0.39359 1.7426-0.51953 2.5684-0.15597 0.81704-0.23372 1.6092-0.31055 2.3086-0.17 1.6829-0.19871 3.7014-0.07031 4.834l0.75 0.0078c0.02259-0.16368 0.02214-0.16296 0.07227-0.4707 0.03342-0.20516 0.07919-0.47192 0.13867-0.79883 0.13722-0.80458 0.3675-1.9556 0.66797-3.3145 0.16615-0.68776 0.33104-1.4235 0.53906-2.1855v-0.0059l2e-3 -0.0039c0.18468-0.7612 0.43878-1.5638 0.68555-2.4141 0.21402-0.79831 0.55975-1.6187 0.83203-2.5039 0.34045-0.85568 0.64973-1.7236 1.0234-2.5391 0.40432-0.85265 0.72633-1.7134 1.166-2.4551l0.0039-0.0059 2e-3 -0.0059c0.22098-0.40058 0.4338-0.80045 0.64258-1.209 0.1725-0.35833 0.4304-0.70071 0.66211-1.0898 0.22269-0.35688 0.46495-0.72568 0.67969-1.0859 0.19251-0.31818 0.44563-0.61728 0.6875-0.95508l0.0098-0.01172c0.49322-0.64135 0.89624-1.2719 1.3398-1.7246l0.0059-0.0039 0.0059-0.0059c0.46575-0.51683 0.88455-1.0045 1.2559-1.4375 2e-3 -0.0023 0.0039-0.0055 0.0059-0.0078 0.39916-0.37972 0.75508-0.71512 1.0469-0.99219 0.29852-0.28796 0.76748-0.75009 0.9375-0.92383z"/><path d="m50.047 33.012c-0.185 0.13475-0.68885 0.51603-1.0098 0.76367-0.31156 0.24353-0.71006 0.54474-1.1484 0.9082l-0.01172 0.0098-0.01172 0.01172c-0.39839 0.39238-0.85216 0.84177-1.3359 1.3457-0.52766 0.49968-0.99636 1.1253-1.4727 1.7383-0.22504 0.29631-0.50817 0.63625-0.75781 0.99219-0.23383 0.35126-0.46287 0.72824-0.68555 1.0781-0.48942 0.7418-0.93357 1.5408-1.3359 2.375-0.43963 0.81472-0.78742 1.709-1.1426 2.5352-0.36052 0.86829-0.62397 1.7933-0.91602 2.6211l-0.0039 0.0098-0.0039 0.01172c-0.24881 0.87584-0.48241 1.7491-0.66992 2.6035-0.18377 0.84552-0.34625 1.677-0.45117 2.4746-0.1333 0.78979-0.20111 1.5427-0.25977 2.2246-0.11839 1.3863-0.12216 2.55-0.09375 3.3613 0.01317 0.45925 0.04917 1.0253 0.08398 1.293l0.75 0.0039c0.06196-0.44591 0.06144-0.44588 0.20117-1.2285 0.12965-0.77591 0.34065-1.8835 0.62109-3.1973 0.14589-0.6595 0.30482-1.3698 0.49219-2.1113v-0.0039l2e-3 -0.0059c0.16422-0.73171 0.40571-1.5058 0.61914-2.3262 0.20971-0.78738 0.5098-1.5989 0.75977-2.459 0.31041-0.82932 0.56633-1.67 0.91016-2.4551 0.34574-0.83242 0.64511-1.6628 1.0371-2.416 0.19461-0.39628 0.38157-0.79154 0.55664-1.1816 0.1714-0.36341 0.38804-0.71874 0.58984-1.0977 0.19065-0.35064 0.39991-0.71518 0.58594-1.0742l0.0078-0.01172c0.18515-0.3246 0.40382-0.63823 0.60547-0.96289 0.42939-0.65329 0.7837-1.2824 1.1777-1.7656l0.0039-0.0039 0.0039-0.0059c0.4025-0.53103 0.76299-1.0317 1.082-1.4746 0.35608-0.40934 0.66845-0.76904 0.92773-1.0664 0.25833-0.30407 0.66428-0.79036 0.81055-0.97266z"/></g></g></svg>
